<svg width="251" height="25" fill="none" xmlns="http://www.w3.org/2000/svg"><path d="M1.535 13.79c2.076-2.75 9.861-4.871 13.494-5.587 16.609-3.438 43.338-5.158 54.497-4.298 11.158.86-1.038 2.579-11.678 4.298-10.64 1.719-2.855 2.578 6.747 1.719 9.602-.86 29.584-1.72 46.711-2.15 17.128-.429-.259-1.288-17.127-1.288s-16.609-1.72-10.64-2.579c5.969-.86 19.463-4.298 35.293-3.868 15.83.43 53.199 1.29 69.288 4.298s49.306 11.174 57.351 13.752c8.045 2.58 7.007 9.885-7.266 5.587-14.273-4.297-43.857-12.033-108.733-13.322-64.877-1.29-114.183 6.016-119.373 9.025-5.19 3.008-8.824 3.008-6.747.43 2.076-2.58 2.595-3.009.519-2.15-2.076.86-4.931-.43-2.336-3.867Z" fill="#3B9E62"/></svg>